<svg width="86" height="13" viewBox="0 0 86 13" fill="none" xmlns="http://www.w3.org/2000/svg">
<path fill-rule="evenodd" clip-rule="evenodd" d="M8.25125 5.10649V0H10.8333V13H8.25125V7.54267H2.56383V13H0V0H2.56383V5.10649H8.25125ZM18.7778 13V0H27.4444V2.37793H21.385V5.20394H27.3159V7.58187H21.385V10.6028H27.4444V13H18.7778ZM35.3889 0V13H42.6111V10.5636H37.8076V0H35.3889ZM67.1667 13H65V0H67.1667V13ZM54.772 0H48.3889V13H54.9721C57.2815 13 58.5 11.4407 58.5 9.49164C58.5 7.85462 57.4636 6.50975 56.1724 6.29535C57.3179 6.04196 58.2636 4.95047 58.2636 3.31324C58.2636 1.57855 57.0817 0 54.772 0ZM54.2083 5.22335C55.0812 5.22335 55.6268 4.61913 55.6268 3.78102C55.6268 2.98211 55.0812 2.3584 54.2083 2.3584H50.9713V5.22335H54.2083ZM54.2992 10.6416C55.2812 10.6416 55.8632 10.0374 55.8632 9.10204C55.8632 8.2832 55.3176 7.58175 54.2992 7.58175H50.9713V10.6416H54.2992ZM81.3809 2.43615L75.1111 10.7585V13H85.2222V10.5636H78.8132L85.0829 2.22196V0H75.1111V2.43615H81.3809Z" fill="black"/>
</svg>
